<svg xmlns="http://www.w3.org/2000/svg" viewBox="0 0 64 64">
  <defs>
    <linearGradient id="tuborg-rim" x1="0%" y1="0%" x2="0%" y2="100%">
      <stop offset="0%" stop-color="#e0e0e0"/>
      <stop offset="50%" stop-color="#fff"/>
      <stop offset="100%" stop-color="#b0b0b0"/>
    </linearGradient>
    <linearGradient id="tuborg-body" x1="0%" y1="0%" x2="100%" y2="0%">
      <stop offset="0%" stop-color="#b8861e"/>
      <stop offset="25%" stop-color="#d4a84a"/>
      <stop offset="50%" stop-color="#ecc55a"/>
      <stop offset="75%" stop-color="#c99b2e"/>
      <stop offset="100%" stop-color="#a67c18"/>
    </linearGradient>
    <linearGradient id="tuborg-label" x1="0%" y1="0%" x2="0%" y2="100%">
      <stop offset="0%" stop-color="#6B2A2A"/>
      <stop offset="50%" stop-color="#4A1818"/>
      <stop offset="100%" stop-color="#5C1D1D"/>
    </linearGradient>
    <linearGradient id="tuborg-gold-txt" x1="0%" y1="0%" x2="0%" y2="100%">
      <stop offset="0%" stop-color="#F5E7B7"/>
      <stop offset="100%" stop-color="#D4B86A"/>
    </linearGradient>
  </defs>
  <!-- Üst kenar (gümüş) -->
  <ellipse cx="32" cy="11" rx="11" ry="4" fill="url(#tuborg-rim)"/>
  <!-- Kutu gövdesi (altın metalik) -->
  <rect x="21" y="14" width="22" height="34" rx="3" ry="2" fill="url(#tuborg-body)"/>
  <!-- Ana etiket (kalkan – koyu bordo) -->
  <path d="M26 20 L26 18 Q32 14 38 18 L38 20 L38 42 Q32 46 26 42 Z" fill="url(#tuborg-label)" opacity="0.98"/>
  <!-- Taç (basit) -->
  <path d="M30 20 L32 17 L34 20 L33 19 L35 19 L34 21 L32 19 L30 21 L31 19 Z" fill="#F5E7B7" stroke="#8B6918" stroke-width="0.6" fill-opacity="0.95"/>
  <!-- %100 MALT bandı -->
  <path d="M27 23 L37 23 L36.5 25 L27.5 25 Z" fill="url(#tuborg-gold-txt)" opacity="0.9"/>
  <!-- TUBORG kutusu (beyaz alan) -->
  <rect x="28" y="26" width="16" height="6" rx="0.8" fill="#fff" opacity="0.95"/>
  <!-- GOLD oval -->
  <ellipse cx="32" cy="36" rx="6" ry="3.2" fill="url(#tuborg-gold-txt)" opacity="0.95"/>
  <!-- Alt kırmızı bant -->
  <rect x="21" y="44" width="22" height="4" rx="0.5" fill="#DC324B"/>
  <!-- Kırmızı yuvarlak mühür -->
  <circle cx="26" cy="46" r="2.2" fill="#DC324B"/>
  <circle cx="26" cy="46" r="1.2" fill="#fff" opacity="0.4"/>
  <!-- Alt kenar (gümüş) -->
  <ellipse cx="32" cy="49" rx="11" ry="4" fill="url(#tuborg-rim)"/>
</svg>
